<svg width="60" height="29" viewBox="0 0 60 29" fill="none" xmlns="http://www.w3.org/2000/svg">
<path d="M31.8169 13.0637H36.8836C36.8739 12.6839 36.7686 12.3127 36.5773 11.9844C36.3861 11.6561 36.1152 11.3813 35.7896 11.1855C35.1077 10.7767 34.3255 10.5655 33.5305 10.5755C32.9337 10.5632 32.3407 10.673 31.7879 10.8983C31.355 11.08 30.9489 11.32 30.5809 11.6115L29.1222 9.65256C29.7268 9.25395 30.3769 8.92893 31.0585 8.6844C31.8625 8.40011 32.7101 8.2592 33.5628 8.2681C35.4991 8.2681 36.9126 8.70592 37.8034 9.58156C38.6409 10.3632 39.2471 11.3602 39.5557 12.4634C39.6244 12.7747 39.6772 13.0892 39.7138 13.4058C39.7475 13.7015 39.7647 13.9989 39.7655 14.2965C39.7655 14.5321 39.7655 14.7677 39.73 15.0097C39.7049 15.2565 39.6628 15.5013 39.6041 15.7423C39.3066 16.9937 38.6452 18.129 37.7033 19.005C36.6964 19.9925 35.1904 20.4863 33.1852 20.4863C32.3628 20.5038 31.5439 20.3726 30.7681 20.099C30.1335 19.8684 29.5298 19.5606 28.9705 19.1825L30.5841 17.3494C30.6906 17.4333 30.8003 17.5076 30.9068 17.5786C31.0133 17.6496 31.1263 17.7141 31.2296 17.7722C31.5296 17.9225 31.8489 18.0311 32.1784 18.0949C32.5507 18.1644 32.9291 18.1968 33.3079 18.1917C33.5112 18.1917 33.7468 18.1917 34.0179 18.1659C34.3025 18.1458 34.5834 18.0894 34.8537 17.9981C35.3409 17.8397 35.7834 17.5675 36.1446 17.2042C36.5954 16.7054 36.8539 16.0625 36.8739 15.3905H31.8169V13.0637Z" fill="black"/>
<path d="M44.4578 20.2571H41.5792V8.51654H45.4195C46.9707 8.51654 48.0906 8.8952 48.779 9.65251C49.432 10.3361 49.8326 11.2216 49.915 12.1633C49.9277 12.2238 49.9341 12.2854 49.9344 12.3472V12.5312C49.955 13.649 49.5554 14.7339 48.8145 15.5712C48.0658 16.4318 46.9342 16.8621 45.4195 16.8621H44.4514L44.4578 20.2571ZM45.2065 14.5449H45.5099C45.6186 14.5396 45.7266 14.5245 45.8326 14.4998C46.1531 14.4466 46.447 14.2889 46.6685 14.0512C46.918 13.7995 47.0428 13.338 47.0428 12.6667C47.0428 11.9955 46.8987 11.5383 46.6104 11.2952C46.3488 11.0583 46.0189 10.9103 45.668 10.8724L45.4292 10.8466H45.2065H44.4578V14.5449H45.2065Z" fill="black"/>
<path d="M51.1801 20.2571H48.3369L54.0426 8.26807H54.2911L59.9968 20.2571H57.1536L56.4081 18.6693H51.9288L51.1801 20.2571ZM55.4626 16.3425L54.1717 13.9608L52.855 16.3425H55.4626Z" fill="black"/>
<path d="M56.9697 9.62351C56.9645 9.33155 57.0464 9.04467 57.2048 8.79936C57.3632 8.55406 57.591 8.36143 57.8592 8.24599C58.1275 8.13054 58.424 8.0975 58.711 8.15108C58.9981 8.20465 59.2627 8.34241 59.4712 8.54682C59.6797 8.75124 59.8227 9.01307 59.882 9.299C59.9413 9.58493 59.9141 9.88203 59.8041 10.1525C59.694 10.423 59.5059 10.6545 59.2638 10.8178C59.0217 10.9811 58.7365 11.0686 58.4445 11.0693C58.2522 11.0732 58.0611 11.0386 57.8823 10.9677C57.7035 10.8968 57.5407 10.7909 57.4033 10.6562C57.266 10.5216 57.1569 10.3609 57.0824 10.1836C57.008 10.0063 56.9696 9.81585 56.9697 9.62351ZM58.4445 10.8273C58.6825 10.8305 58.916 10.7629 59.1155 10.633C59.3149 10.5032 59.4713 10.3171 59.5647 10.0982C59.6582 9.87931 59.6845 9.63761 59.6402 9.40377C59.596 9.16993 59.4833 8.95451 59.3164 8.78487C59.1495 8.61523 58.9359 8.49902 58.7028 8.45101C58.4697 8.40301 58.2276 8.42536 58.0072 8.51523C57.7869 8.60511 57.5982 8.75845 57.4652 8.95578C57.3322 9.15311 57.2608 9.38553 57.2601 9.62351C57.2553 9.78126 57.2825 9.93834 57.3401 10.0853C57.3976 10.2322 57.4844 10.366 57.5951 10.4785C57.7058 10.591 57.8381 10.6799 57.9841 10.7398C58.1301 10.7998 58.2867 10.8295 58.4445 10.8273ZM58.1218 10.4594H57.8701V8.79412H58.5155C58.9124 8.79412 59.1061 8.93935 59.1061 9.26852C59.1091 9.32734 59.1002 9.38616 59.0799 9.44144C59.0596 9.49671 59.0283 9.5473 58.9878 9.59013C58.9474 9.63296 58.8987 9.66716 58.8447 9.69065C58.7907 9.71413 58.7325 9.72643 58.6736 9.72678L59.148 10.4594H58.864L58.4219 9.73647H58.1315L58.1218 10.4594ZM58.4251 9.52347C58.6413 9.52347 58.8318 9.52347 58.8318 9.25239C58.8318 9.04585 58.6446 9.00712 58.4671 9.00712H58.1218V9.52347H58.4251Z" fill="black"/>
<path d="M11.7922 16.1392C12.7956 16.1392 13.6091 15.3315 13.6091 14.3352C13.6091 13.3389 12.7956 12.5312 11.7922 12.5312C10.7887 12.5312 9.97526 13.3389 9.97526 14.3352C9.97526 15.3315 10.7887 16.1392 11.7922 16.1392Z" fill="#FF0000"/>
<path d="M15.4066 15.5066C16.0572 15.5066 16.5846 14.9822 16.5846 14.3352C16.5846 13.6882 16.0572 13.1637 15.4066 13.1637C14.7561 13.1637 14.2287 13.6882 14.2287 14.3352C14.2287 14.9822 14.7561 15.5066 15.4066 15.5066Z" fill="#FF0000"/>
<path d="M11.7922 1.21343C12.129 1.21343 12.4021 0.941791 12.4021 0.606713C12.4021 0.271634 12.129 0 11.7922 0C11.4553 0 11.1822 0.271634 11.1822 0.606713C11.1822 0.941791 11.4553 1.21343 11.7922 1.21343Z" fill="#FF0000"/>
<path d="M11.7922 3.59188C12.2966 3.59188 12.7055 3.18587 12.7055 2.68504C12.7055 2.1842 12.2966 1.7782 11.7922 1.7782C11.2878 1.7782 10.8789 2.1842 10.8789 2.68504C10.8789 3.18587 11.2878 3.59188 11.7922 3.59188Z" fill="#FF0000"/>
<path d="M11.7922 6.69643C12.4766 6.69643 13.0314 6.14593 13.0314 5.46687C13.0314 4.7878 12.4766 4.2373 11.7922 4.2373C11.1078 4.2373 10.5529 4.7878 10.5529 5.46687C10.5529 6.14593 11.1078 6.69643 11.7922 6.69643Z" fill="#FF0000"/>
<path d="M11.7922 8.74569C12.1968 8.74569 12.5247 8.4206 12.5247 8.01958C12.5247 7.61855 12.1968 7.29346 11.7922 7.29346C11.3876 7.29346 11.0596 7.61855 11.0596 8.01958C11.0596 8.4206 11.3876 8.74569 11.7922 8.74569Z" fill="#FF0000"/>
<path d="M11.7922 28.6736C12.129 28.6736 12.4021 28.402 12.4021 28.0669C12.4021 27.7318 12.129 27.4602 11.7922 27.4602C11.4553 27.4602 11.1822 27.7318 11.1822 28.0669C11.1822 28.402 11.4553 28.6736 11.7922 28.6736Z" fill="#FF0000"/>
<path d="M11.7922 26.8955C12.2966 26.8955 12.7055 26.4895 12.7055 25.9886C12.7055 25.4878 12.2966 25.0818 11.7922 25.0818C11.2878 25.0818 10.8789 25.4878 10.8789 25.9886C10.8789 26.4895 11.2878 26.8955 11.7922 26.8955Z" fill="#FF0000"/>
<path d="M11.7922 24.4331C12.4766 24.4331 13.0314 23.8826 13.0314 23.2035C13.0314 22.5244 12.4766 21.9739 11.7922 21.9739C11.1078 21.9739 10.5529 22.5244 10.5529 23.2035C10.5529 23.8826 11.1078 24.4331 11.7922 24.4331Z" fill="#FF0000"/>
<path d="M11.7922 21.3769C12.1968 21.3769 12.5247 21.0518 12.5247 20.6508C12.5247 20.2498 12.1968 19.9247 11.7922 19.9247C11.3876 19.9247 11.0596 20.2498 11.0596 20.6508C11.0596 21.0518 11.3876 21.3769 11.7922 21.3769Z" fill="#FF0000"/>
<path d="M8.10026 1.0908C8.13839 1.2054 8.14163 1.32874 8.10958 1.44519C8.07753 1.56164 8.01163 1.66596 7.92024 1.74491C7.82884 1.82387 7.71606 1.87391 7.59619 1.8887C7.47631 1.90349 7.35475 1.88235 7.24691 1.82798C7.13906 1.7736 7.04978 1.68843 6.9904 1.58326C6.93101 1.47809 6.90418 1.35766 6.91331 1.23722C6.92245 1.11679 6.96713 1.00178 7.0417 0.906768C7.11627 0.811757 7.21737 0.741025 7.33218 0.703535C7.40801 0.677875 7.48819 0.667558 7.56805 0.673185C7.6479 0.678812 7.72584 0.700271 7.79732 0.736312C7.86881 0.772354 7.9324 0.822257 7.98441 0.883116C8.03642 0.943974 8.0758 1.01457 8.10026 1.0908Z" fill="#FF0000"/>
<path d="M9.03615 2.97227C9.07329 3.08605 9.08754 3.20605 9.07808 3.32535C9.06863 3.44466 9.03565 3.56091 8.98105 3.66741C8.92645 3.77392 8.85131 3.86855 8.75996 3.94588C8.66861 4.0232 8.56285 4.08167 8.4488 4.11793C8.22064 4.19314 7.97207 4.17576 7.7566 4.06953C7.54112 3.9633 7.37597 3.77672 7.29669 3.54994C7.25955 3.43617 7.24529 3.31617 7.25475 3.19687C7.26421 3.07756 7.29719 2.9613 7.35179 2.8548C7.40639 2.7483 7.48153 2.65366 7.57288 2.57634C7.66423 2.49902 7.76998 2.44054 7.88404 2.40429C8.1122 2.32908 8.36077 2.34646 8.57624 2.45269C8.79171 2.55891 8.95687 2.7455 9.03615 2.97227Z" fill="#FF0000"/>
<path d="M10.2108 5.52173C10.2875 5.75465 10.2933 6.00508 10.2276 6.24132C10.1618 6.47755 10.0275 6.68897 9.8415 6.84881C9.65555 7.00866 9.42635 7.10974 9.18293 7.13927C8.9395 7.1688 8.69278 7.12545 8.474 7.01471C8.25522 6.90396 8.07422 6.7308 7.95389 6.51714C7.83357 6.30348 7.77934 6.05892 7.79806 5.81443C7.81678 5.56993 7.90762 5.33648 8.05907 5.14364C8.21053 4.95079 8.41579 4.80721 8.64888 4.73106C8.80331 4.67927 8.96648 4.65867 9.12893 4.67047C9.29139 4.68226 9.44987 4.72622 9.5952 4.79978C9.74052 4.87334 9.86977 4.97504 9.97546 5.09898C10.0811 5.22291 10.1612 5.36661 10.2108 5.52173Z" fill="#FF0000"/>
<path d="M10.5239 8.1035C10.5691 8.24056 10.5726 8.38793 10.534 8.52698C10.4954 8.66603 10.4164 8.79051 10.307 8.88465C10.1977 8.97879 10.0628 9.03838 9.91956 9.05586C9.77632 9.07334 9.6311 9.04793 9.5023 8.98285C9.3735 8.91777 9.2669 8.81595 9.19599 8.69026C9.12508 8.56458 9.09305 8.42068 9.10395 8.27678C9.11485 8.13289 9.1682 7.99546 9.25723 7.88189C9.34627 7.76832 9.467 7.68372 9.60413 7.63879C9.69502 7.60856 9.79099 7.59662 9.88652 7.60364C9.98205 7.61066 10.0752 7.63652 10.1607 7.67971C10.2462 7.72291 10.3223 7.78259 10.3846 7.85533C10.447 7.92806 10.4943 8.0124 10.5239 8.1035Z" fill="#FF0000"/>
<path d="M15.4905 27.5796C15.453 27.4649 15.4504 27.3416 15.4829 27.2254C15.5155 27.1092 15.5818 27.0053 15.6735 26.9267C15.7651 26.8482 15.878 26.7987 15.9978 26.7843C16.1177 26.77 16.2391 26.7916 16.3467 26.8463C16.4543 26.901 16.5432 26.9863 16.6022 27.0916C16.6613 27.1969 16.6877 27.3173 16.6783 27.4376C16.6689 27.5579 16.624 27.6728 16.5493 27.7675C16.4746 27.8623 16.3734 27.9328 16.2586 27.9701C16.105 28.02 15.9378 28.0069 15.7938 27.9337C15.6498 27.8605 15.5408 27.7331 15.4905 27.5796Z" fill="#FF0000"/>
<path d="M14.5482 25.6982C14.4921 25.5265 14.4881 25.342 14.5368 25.1681C14.5855 24.9941 14.6846 24.8385 14.8218 24.721C14.9589 24.6034 15.1278 24.5291 15.3071 24.5075C15.4864 24.4859 15.6681 24.518 15.8292 24.5997C15.9903 24.6814 16.1236 24.809 16.2122 24.9664C16.3008 25.1238 16.3407 25.304 16.3269 25.4841C16.3131 25.6642 16.2462 25.8361 16.1347 25.9782C16.0231 26.1203 15.872 26.2261 15.7003 26.2823C15.4701 26.3567 15.2197 26.3371 15.0039 26.2277C14.788 26.1182 14.6242 25.9279 14.5482 25.6982Z" fill="#FF0000"/>
<path d="M13.3735 23.1487C13.2969 22.9157 13.291 22.6653 13.3568 22.4291C13.4225 22.1928 13.5569 21.9814 13.7428 21.8216C13.9288 21.6617 14.158 21.5606 14.4014 21.5311C14.6448 21.5016 14.8916 21.5449 15.1103 21.6557C15.3291 21.7664 15.5101 21.9396 15.6304 22.1532C15.7508 22.3669 15.805 22.6115 15.7863 22.856C15.7676 23.1005 15.6767 23.3339 15.5253 23.5267C15.3738 23.7196 15.1685 23.8632 14.9355 23.9393C14.781 23.9911 14.6179 24.0117 14.4554 23.9999C14.293 23.9881 14.1345 23.9442 13.9891 23.8706C13.8438 23.797 13.7146 23.6953 13.6089 23.5714C13.5032 23.4475 13.4232 23.3038 13.3735 23.1487Z" fill="#FF0000"/>
<path d="M13.0605 20.5637C13.0308 20.4728 13.0194 20.3769 13.0268 20.2816C13.0343 20.1863 13.0606 20.0934 13.104 20.0082C13.1475 19.923 13.2074 19.8473 13.2802 19.7853C13.353 19.7234 13.4374 19.6764 13.5284 19.6471C13.7124 19.5869 13.9128 19.602 14.0858 19.689C14.2587 19.7761 14.3902 19.9281 14.4514 20.1119C14.5109 20.2963 14.4946 20.4968 14.4063 20.6693C14.3179 20.8418 14.1647 20.9721 13.9802 21.0316C13.7958 21.0911 13.5952 21.0749 13.4227 20.9865C13.2503 20.8981 13.1199 20.7449 13.0605 20.5604V20.5637Z" fill="#FF0000"/>
<path d="M4.15985 2.87223C4.20673 2.93655 4.24042 3.00951 4.25899 3.08691C4.27756 3.16431 4.28063 3.24461 4.26803 3.3232C4.25543 3.40179 4.22741 3.47711 4.18558 3.54482C4.14376 3.61254 4.08895 3.67131 4.02431 3.71776C3.89347 3.81228 3.73064 3.8514 3.57114 3.82663C3.41164 3.80186 3.26834 3.7152 3.17233 3.58544C3.12545 3.52112 3.09176 3.44816 3.0732 3.37076C3.05463 3.29337 3.05156 3.21306 3.06416 3.13448C3.07676 3.05589 3.10477 2.98057 3.1466 2.91285C3.18843 2.84514 3.24324 2.78636 3.30787 2.73992C3.43871 2.64539 3.60155 2.60627 3.76105 2.63105C3.92055 2.65582 4.06385 2.74248 4.15985 2.87223Z" fill="#FF0000"/>
<path d="M5.63791 4.37609C5.70844 4.47249 5.75915 4.58192 5.78712 4.69805C5.81509 4.81418 5.81975 4.9347 5.80084 5.05264C5.78194 5.17059 5.73983 5.28361 5.67697 5.38518C5.6141 5.48675 5.53172 5.57484 5.4346 5.64437C5.33705 5.71692 5.22604 5.76934 5.10804 5.79857C4.99003 5.82781 4.86739 5.83327 4.74726 5.81465C4.62712 5.79603 4.51189 5.7537 4.40828 5.69011C4.30466 5.62653 4.21473 5.54296 4.14372 5.44429C4.07319 5.34788 4.02248 5.23845 3.99451 5.12232C3.96654 5.00619 3.96188 4.88567 3.98079 4.76773C3.99969 4.64978 4.0418 4.53676 4.10466 4.43519C4.16753 4.33362 4.2499 4.24553 4.34703 4.176C4.44474 4.10387 4.55577 4.05181 4.6737 4.02281C4.79164 3.99382 4.91415 3.98847 5.03416 4.00707C5.15418 4.02567 5.26932 4.06786 5.37294 4.13119C5.47657 4.19453 5.56662 4.27776 5.63791 4.37609Z" fill="#FF0000"/>
<path d="M7.54841 6.43825C7.64403 6.56895 7.71281 6.7173 7.75079 6.87472C7.78877 7.03215 7.79519 7.19554 7.76969 7.35546C7.74419 7.51538 7.68726 7.66867 7.6022 7.80648C7.51714 7.94428 7.40563 8.06387 7.2741 8.15835C7.00837 8.35063 6.67739 8.43005 6.35335 8.37926C6.0293 8.32848 5.73848 8.15162 5.54432 7.88726C5.4477 7.75705 5.37786 7.60897 5.33885 7.45159C5.29984 7.2942 5.29242 7.13065 5.31703 6.97038C5.34164 6.81012 5.39779 6.65632 5.48223 6.5179C5.56666 6.37947 5.67771 6.25917 5.80895 6.16394C6.07604 5.96979 6.40929 5.88962 6.73546 5.94105C7.06163 5.99249 7.35403 6.17133 7.54841 6.43825Z" fill="#FF0000"/>
<path d="M8.64566 8.80056C8.70194 8.87757 8.74243 8.96495 8.76479 9.05767C8.78716 9.1504 8.79095 9.24663 8.77595 9.34082C8.76095 9.43502 8.72746 9.52532 8.6774 9.60651C8.62734 9.6877 8.56172 9.75819 8.4843 9.8139C8.32722 9.9281 8.13122 9.97525 7.93938 9.94499C7.74755 9.91474 7.57558 9.80954 7.46128 9.65254C7.40499 9.57554 7.3645 9.48815 7.34214 9.39543C7.31978 9.3027 7.31599 9.20647 7.33099 9.11228C7.34598 9.01808 7.37948 8.92779 7.42953 8.84659C7.47959 8.7654 7.54522 8.69492 7.62264 8.6392C7.78 8.52584 7.97576 8.4792 8.16734 8.50942C8.35892 8.53963 8.53082 8.64427 8.64566 8.80056Z" fill="#FF0000"/>
<path d="M19.4245 25.7982C19.3776 25.7339 19.3439 25.6609 19.3253 25.5835C19.3068 25.5061 19.3037 25.4258 19.3163 25.3472C19.3289 25.2686 19.3569 25.1933 19.3988 25.1256C19.4406 25.0579 19.4954 24.9991 19.56 24.9527C19.6913 24.8585 19.8544 24.8199 20.0139 24.8453C20.1734 24.8706 20.3165 24.9579 20.412 25.0882C20.4589 25.1525 20.4926 25.2255 20.5111 25.3029C20.5297 25.3803 20.5328 25.4606 20.5202 25.5392C20.5076 25.6178 20.4796 25.6931 20.4377 25.7608C20.3959 25.8285 20.3411 25.8873 20.2765 25.9337C20.2116 25.9808 20.1382 26.0146 20.0602 26.0333C19.9823 26.0519 19.9015 26.055 19.8224 26.0424C19.7433 26.0299 19.6674 26.0018 19.5991 25.9599C19.5309 25.918 19.4715 25.863 19.4245 25.7982Z" fill="#FF0000"/>
<path d="M17.9464 24.2943C17.8759 24.1979 17.8252 24.0885 17.7972 23.9723C17.7693 23.8562 17.7646 23.7357 17.7835 23.6177C17.8024 23.4998 17.8445 23.3868 17.9074 23.2852C17.9702 23.1836 18.0526 23.0955 18.1497 23.026C18.2473 22.9535 18.3583 22.901 18.4763 22.8718C18.5943 22.8426 18.7169 22.8371 18.8371 22.8557C18.9572 22.8743 19.0724 22.9167 19.1761 22.9803C19.2797 23.0439 19.3696 23.1274 19.4406 23.2261C19.5111 23.3225 19.5619 23.4319 19.5898 23.5481C19.6178 23.6642 19.6225 23.7847 19.6036 23.9026C19.5846 24.0206 19.5425 24.1336 19.4797 24.2352C19.4168 24.3368 19.3344 24.4248 19.2373 24.4944C19.1398 24.5669 19.0288 24.6193 18.9107 24.6486C18.7927 24.6778 18.6701 24.6833 18.55 24.6647C18.4298 24.646 18.3146 24.6037 18.211 24.5401C18.1074 24.4765 18.0174 24.393 17.9464 24.2943Z" fill="#FF0000"/>
<path d="M16.0359 22.2321C15.9403 22.1014 15.8715 21.9531 15.8336 21.7957C15.7956 21.6382 15.7891 21.4749 15.8146 21.3149C15.8402 21.155 15.8971 21.0017 15.9821 20.8639C16.0672 20.7261 16.1787 20.6065 16.3102 20.512C16.5763 20.3206 16.907 20.2417 17.2308 20.2924C17.5546 20.3432 17.8453 20.5195 18.04 20.7831C18.1356 20.9138 18.2044 21.0622 18.2424 21.2196C18.2804 21.377 18.2868 21.5404 18.2613 21.7003C18.2358 21.8603 18.1789 22.0135 18.0938 22.1514C18.0087 22.2892 17.8972 22.4088 17.7657 22.5032C17.4997 22.6947 17.169 22.7736 16.8452 22.7228C16.5214 22.6721 16.2306 22.4958 16.0359 22.2321Z" fill="#FF0000"/>
<path d="M14.9355 19.8698C14.8792 19.7928 14.8387 19.7054 14.8163 19.6127C14.794 19.52 14.7902 19.4238 14.8052 19.3296C14.8202 19.2354 14.8537 19.1451 14.9037 19.0639C14.9538 18.9827 15.0194 18.9122 15.0968 18.8565C15.2542 18.7431 15.4499 18.6965 15.6415 18.7267C15.8331 18.7569 16.005 18.8616 16.1198 19.0178C16.1761 19.0949 16.2166 19.1822 16.239 19.275C16.2613 19.3677 16.2651 19.4639 16.2501 19.5581C16.2351 19.6523 16.2016 19.7426 16.1516 19.8238C16.1015 19.905 16.0359 19.9755 15.9585 20.0312C15.8011 20.1445 15.6053 20.1912 15.4138 20.161C15.2222 20.1308 15.0503 20.0261 14.9355 19.8698Z" fill="#FF0000"/>
<path d="M0.968159 5.77347C1.03279 5.81991 1.0876 5.87869 1.12943 5.9464C1.17126 6.01412 1.19928 6.08944 1.21188 6.16803C1.22448 6.24661 1.2214 6.32692 1.20284 6.40431C1.18427 6.48171 1.15058 6.55467 1.1037 6.61899C1.00818 6.74925 0.865108 6.83656 0.70558 6.86194C0.546053 6.88732 0.382955 6.84872 0.251722 6.75453C0.187087 6.70809 0.132278 6.64932 0.09045 6.5816C0.0486223 6.51389 0.0206027 6.43857 0.00800454 6.35998C-0.00459365 6.28139 -0.00152157 6.20108 0.0170439 6.12369C0.0356093 6.04629 0.0693014 5.97333 0.11618 5.90901C0.211706 5.77875 0.354774 5.69144 0.514301 5.66607C0.673829 5.64069 0.836926 5.67928 0.968159 5.77347Z" fill="#FF0000"/>
<path d="M2.83993 6.75128C2.93706 6.82081 3.01944 6.90891 3.0823 7.01048C3.14517 7.11205 3.18727 7.22507 3.20618 7.34301C3.22508 7.46096 3.22042 7.58148 3.19245 7.69761C3.16449 7.81374 3.11377 7.92317 3.04324 8.01957C2.97196 8.1179 2.8819 8.20113 2.77828 8.26446C2.67465 8.3278 2.55951 8.36999 2.4395 8.38859C2.31948 8.40719 2.19697 8.40184 2.07904 8.37285C1.9611 8.34385 1.85007 8.29179 1.75237 8.21966C1.65524 8.15013 1.57286 8.06203 1.51 7.96047C1.44713 7.8589 1.40503 7.74587 1.38612 7.62793C1.36721 7.50999 1.37188 7.38947 1.39985 7.27334C1.42781 7.15721 1.47853 7.04778 1.54905 6.95137C1.62006 6.85269 1.70999 6.76913 1.81361 6.70555C1.91723 6.64196 2.03246 6.59963 2.15259 6.58101C2.27273 6.56238 2.39537 6.56785 2.51337 6.59708C2.63137 6.62632 2.74238 6.67874 2.83993 6.75128Z" fill="#FF0000"/>
<path d="M5.29906 8.12605C5.43058 8.22053 5.5421 8.34012 5.62716 8.47792C5.71222 8.61573 5.76915 8.76901 5.79465 8.92893C5.82015 9.08886 5.81373 9.25225 5.77575 9.40967C5.73777 9.5671 5.66898 9.71544 5.57337 9.84614C5.37868 10.1098 5.08793 10.2861 4.76414 10.3368C4.44035 10.3876 4.1096 10.3087 3.84359 10.1172C3.7109 10.023 3.5983 9.90323 3.51235 9.765C3.42641 9.62677 3.36885 9.47282 3.34301 9.31211C3.31718 9.15141 3.3236 8.98717 3.36189 8.82897C3.40018 8.67077 3.46959 8.52178 3.56605 8.39068C3.76177 8.12712 4.0536 7.95147 4.37812 7.90191C4.70264 7.85236 5.0336 7.93291 5.29906 8.12605Z" fill="#FF0000"/>
<path d="M7.07724 10.0366C7.15511 10.0923 7.22114 10.163 7.27148 10.2444C7.32183 10.3259 7.35548 10.4166 7.3705 10.5111C7.38551 10.6057 7.38158 10.7023 7.35894 10.7954C7.33629 10.8884 7.29539 10.9761 7.2386 11.0532C7.12435 11.2092 6.95301 11.3138 6.76196 11.344C6.57091 11.3743 6.37566 11.3277 6.2188 11.2145C6.14138 11.1588 6.07576 11.0883 6.0257 11.0071C5.97565 10.9259 5.94215 10.8356 5.92715 10.7414C5.91215 10.6473 5.91594 10.551 5.93831 10.4583C5.96067 10.3656 6.00116 10.2782 6.05744 10.2012C6.17174 10.0453 6.34278 9.94065 6.5336 9.90985C6.72443 9.87906 6.91971 9.92459 7.07724 10.0366Z" fill="#FF0000"/>
<path d="M22.6162 22.8937C22.5515 22.8473 22.4967 22.7885 22.4549 22.7208C22.4131 22.6531 22.3851 22.5778 22.3725 22.4992C22.3599 22.4206 22.3629 22.3403 22.3815 22.2629C22.4001 22.1855 22.4338 22.1125 22.4806 22.0482C22.5277 21.9834 22.587 21.9284 22.6553 21.8865C22.7236 21.8446 22.7994 21.8165 22.8785 21.804C22.9577 21.7914 23.0385 21.7945 23.1164 21.8132C23.1943 21.8318 23.2678 21.8656 23.3326 21.9127C23.3973 21.9591 23.4521 22.0179 23.4939 22.0856C23.5357 22.1533 23.5637 22.2286 23.5763 22.3072C23.5889 22.3858 23.5859 22.4661 23.5673 22.5435C23.5487 22.6209 23.515 22.6939 23.4682 22.7582C23.3726 22.8885 23.2296 22.9758 23.07 23.0011C22.9105 23.0265 22.7474 22.9879 22.6162 22.8937Z" fill="#FF0000"/>
<path d="M20.7444 21.9191C20.6477 21.8496 20.5658 21.7617 20.5032 21.6604C20.4406 21.5591 20.3987 21.4464 20.3798 21.3288C20.3609 21.2113 20.3654 21.0911 20.3931 20.9753C20.4208 20.8595 20.4711 20.7503 20.5411 20.654C20.6124 20.5557 20.7024 20.4725 20.8061 20.4091C20.9097 20.3458 21.0248 20.3036 21.1448 20.285C21.2649 20.2664 21.3874 20.2718 21.5053 20.3008C21.6232 20.3298 21.7343 20.3818 21.832 20.454C21.9288 20.5238 22.0108 20.612 22.0734 20.7136C22.136 20.8151 22.178 20.9281 22.1969 21.0459C22.2158 21.1637 22.2112 21.2841 22.1835 21.4002C22.1558 21.5162 22.1054 21.6257 22.0353 21.7222C21.964 21.8207 21.8739 21.9039 21.7702 21.9672C21.6665 22.0305 21.5512 22.0725 21.431 22.0908C21.3109 22.1092 21.1884 22.1034 21.0705 22.0739C20.9526 22.0444 20.8418 21.9918 20.7444 21.9191Z" fill="#FF0000"/>
<path d="M18.2853 20.5443C18.1538 20.4499 18.0422 20.3303 17.9572 20.1925C17.8721 20.0547 17.8152 19.9014 17.7897 19.7415C17.7642 19.5815 17.7706 19.4181 17.8086 19.2607C17.8466 19.1033 17.9154 18.9549 18.011 18.8242C18.2051 18.5599 18.496 18.383 18.82 18.3322C19.144 18.2815 19.475 18.3609 19.7408 18.5532C19.8713 18.6481 19.9819 18.7679 20.066 18.9057C20.1502 19.0434 20.2063 19.1965 20.2312 19.356C20.2561 19.5155 20.2493 19.6783 20.2111 19.8352C20.1729 19.9921 20.1041 20.1398 20.0086 20.27C19.8145 20.5324 19.5253 20.7081 19.203 20.7594C18.8807 20.8107 18.5512 20.7334 18.2853 20.5443Z" fill="#FF0000"/>
<path d="M16.5039 18.6338C16.4265 18.5781 16.3608 18.5076 16.3108 18.4265C16.2607 18.3453 16.2272 18.255 16.2122 18.1608C16.1972 18.0666 16.201 17.9703 16.2234 17.8776C16.2457 17.7849 16.2862 17.6975 16.3425 17.6205C16.4574 17.4642 16.6293 17.3596 16.8208 17.3294C17.0124 17.2991 17.2082 17.3458 17.3655 17.4591C17.4431 17.5152 17.5088 17.5859 17.5589 17.6674C17.609 17.7489 17.6425 17.8394 17.6575 17.9339C17.6724 18.0284 17.6686 18.1249 17.6462 18.2178C17.6238 18.3108 17.5833 18.3985 17.5269 18.4757C17.4116 18.6315 17.2394 18.7355 17.0479 18.7651C16.8563 18.7947 16.6608 18.7475 16.5039 18.6338Z" fill="#FF0000"/>
<path d="M24.7494 19.1534C24.5971 19.1045 24.4704 18.9972 24.3972 18.855C24.3239 18.7128 24.3102 18.5473 24.3589 18.395C24.4098 18.2421 24.5191 18.1155 24.663 18.0429C24.8069 17.9703 24.9737 17.9577 25.1269 18.0077C25.2056 18.03 25.279 18.0679 25.3427 18.1192C25.4063 18.1706 25.4589 18.2342 25.4974 18.3064C25.5358 18.3786 25.5592 18.4578 25.5663 18.5393C25.5733 18.6207 25.5638 18.7028 25.5383 18.7805C25.5129 18.8582 25.472 18.9299 25.4181 18.9914C25.3642 19.0529 25.2984 19.1029 25.2247 19.1383C25.151 19.1738 25.0709 19.1939 24.9892 19.1976C24.9075 19.2013 24.826 19.1885 24.7494 19.1598V19.1534Z" fill="#FF0000"/>
<path d="M22.6646 18.7984C22.494 18.7419 22.3439 18.6362 22.2333 18.4945C22.1228 18.3528 22.0566 18.1816 22.0432 18.0024C22.0298 17.8232 22.0697 17.644 22.158 17.4875C22.2462 17.3309 22.3789 17.204 22.5392 17.1228C22.6995 17.0415 22.8802 17.0095 23.0587 17.0308C23.2371 17.0522 23.4052 17.1258 23.5419 17.2426C23.6785 17.3593 23.7775 17.5139 23.8264 17.6868C23.8753 17.8597 23.8719 18.0433 23.8167 18.2143C23.7802 18.3288 23.7212 18.4349 23.6433 18.5264C23.5654 18.6179 23.4701 18.6931 23.3629 18.7474C23.2557 18.8018 23.1387 18.8343 23.0188 18.843C22.899 18.8518 22.7785 18.8366 22.6646 18.7984Z" fill="#FF0000"/>
<path d="M19.8989 18.2466C19.6679 18.1698 19.4649 18.0263 19.3153 17.8343C19.1657 17.6423 19.0763 17.4104 19.0584 17.1676C19.0404 16.9249 19.0947 16.6823 19.2144 16.4704C19.3341 16.2585 19.5139 16.0867 19.731 15.9768C19.9482 15.8669 20.193 15.8237 20.4347 15.8527C20.6763 15.8817 20.904 15.9816 21.089 16.1398C21.274 16.2979 21.408 16.5073 21.4742 16.7415C21.5403 16.9757 21.5357 17.2243 21.4608 17.4559C21.3575 17.7671 21.1354 18.0249 20.8428 18.173C20.5502 18.3212 20.2109 18.3476 19.8989 18.2466Z" fill="#FF0000"/>
<path d="M17.6108 16.9783C17.4751 16.9327 17.3559 16.8481 17.2682 16.735C17.1805 16.6219 17.1281 16.4854 17.1177 16.3426C17.1073 16.1998 17.1394 16.0572 17.2098 15.9326C17.2802 15.808 17.3859 15.707 17.5136 15.6423C17.6412 15.5775 17.7852 15.552 17.9273 15.5688C18.0695 15.5857 18.2035 15.6441 18.3125 15.7369C18.4215 15.8296 18.5006 15.9525 18.54 16.0901C18.5794 16.2278 18.5772 16.3739 18.5338 16.5103C18.4732 16.6946 18.3421 16.8474 18.169 16.9351C17.996 17.0229 17.7953 17.0384 17.6108 16.9783Z" fill="#FF0000"/>
<path d="M25.6142 14.9419C25.9511 14.9419 26.2242 14.6703 26.2242 14.3352C26.2242 14.0001 25.9511 13.7285 25.6142 13.7285C25.2774 13.7285 25.0043 14.0001 25.0043 14.3352C25.0043 14.6703 25.2774 14.9419 25.6142 14.9419Z" fill="#FF0000"/>
<path d="M23.523 15.242C24.0274 15.242 24.4363 14.836 24.4363 14.3352C24.4363 13.8344 24.0274 13.4283 23.523 13.4283C23.0186 13.4283 22.6097 13.8344 22.6097 14.3352C22.6097 14.836 23.0186 15.242 23.523 15.242Z" fill="#FF0000"/>
<path d="M20.7186 15.5648C21.403 15.5648 21.9578 15.0143 21.9578 14.3352C21.9578 13.6561 21.403 13.1057 20.7186 13.1057C20.0342 13.1057 19.4793 13.6561 19.4793 14.3352C19.4793 15.0143 20.0342 15.5648 20.7186 15.5648Z" fill="#FF0000"/>
<path d="M18.1497 15.0613C18.5543 15.0613 18.8823 14.7362 18.8823 14.3352C18.8823 13.9342 18.5543 13.6091 18.1497 13.6091C17.7452 13.6091 17.4172 13.9342 17.4172 14.3352C17.4172 14.7362 17.7452 15.0613 18.1497 15.0613Z" fill="#FF0000"/>
<path d="M25.1269 10.6691C25.0127 10.7062 24.89 10.7086 24.7744 10.6759C24.6588 10.6432 24.5555 10.5769 24.4776 10.4855C24.3997 10.3941 24.3507 10.2815 24.3368 10.1622C24.3229 10.0429 24.3448 9.92215 24.3996 9.81526C24.4544 9.70836 24.5397 9.62014 24.6447 9.56178C24.7497 9.50341 24.8696 9.47753 24.9894 9.48741C25.1091 9.49728 25.2232 9.54247 25.3172 9.61726C25.4112 9.69204 25.4809 9.79304 25.5174 9.90747C25.542 9.98311 25.5514 10.0629 25.5451 10.1422C25.5388 10.2214 25.5168 10.2987 25.4806 10.3695C25.4443 10.4403 25.3943 10.5032 25.3337 10.5546C25.273 10.606 25.2027 10.6449 25.1269 10.6691Z" fill="#FF0000"/>
<path d="M23.2358 11.5985C23.0645 11.6537 22.8807 11.6568 22.7076 11.6074C22.5345 11.5581 22.3799 11.4586 22.2634 11.3214C22.1469 11.1843 22.0737 11.0156 22.053 10.8369C22.0323 10.6581 22.0651 10.4772 22.1472 10.317C22.2293 10.1569 22.357 10.0247 22.5143 9.93711C22.6715 9.84955 22.8512 9.81058 23.0305 9.82512C23.2099 9.83966 23.381 9.90706 23.522 10.0188C23.6631 10.1305 23.7679 10.2816 23.8232 10.4529C23.8955 10.6827 23.8744 10.9318 23.7645 11.1462C23.6546 11.3606 23.4646 11.5231 23.2358 11.5985Z" fill="#FF0000"/>
<path d="M20.654 12.7668C20.4219 12.8411 20.173 12.845 19.9387 12.778C19.7044 12.7109 19.4952 12.5759 19.3375 12.39C19.1799 12.2041 19.0809 11.9757 19.0531 11.7335C19.0253 11.4914 19.0699 11.2464 19.1812 11.0296C19.2925 10.8128 19.4656 10.6339 19.6786 10.5154C19.8916 10.3969 20.135 10.3443 20.3779 10.3641C20.6208 10.3838 20.8524 10.4752 21.0435 10.6265C21.2345 10.7779 21.3764 10.9825 21.4512 11.2145C21.5498 11.526 21.5214 11.864 21.3721 12.1547C21.2228 12.4454 20.9647 12.6654 20.654 12.7668Z" fill="#FF0000"/>
<path d="M18.0723 13.0734C17.9356 13.1167 17.7891 13.1186 17.6514 13.0788C17.5136 13.039 17.3907 12.9593 17.2982 12.8498C17.2057 12.7403 17.1476 12.6058 17.1314 12.4633C17.1152 12.3208 17.1415 12.1767 17.2071 12.0492C17.2726 11.9217 17.3745 11.8164 17.4998 11.7467C17.6251 11.677 17.7682 11.6459 17.9112 11.6574C18.0541 11.6689 18.1904 11.7225 18.3029 11.8114C18.4155 11.9003 18.4992 12.0205 18.5435 12.1569C18.6015 12.3409 18.5845 12.5404 18.4963 12.712C18.4081 12.8836 18.2557 13.0135 18.0723 13.0734Z" fill="#FF0000"/>
<path d="M0.251721 21.9159C0.382954 21.8217 0.546052 21.7831 0.705579 21.8085C0.865106 21.8338 1.00817 21.9211 1.1037 22.0514C1.19736 22.1811 1.2357 22.3427 1.21028 22.5006C1.18487 22.6586 1.09778 22.7999 0.968158 22.8937C0.836925 22.9879 0.673827 23.0265 0.5143 23.0011C0.354773 22.9757 0.211705 22.8884 0.116179 22.7582C0.0225173 22.6285 -0.0158182 22.4669 0.00959789 22.309C0.035014 22.151 0.122102 22.0096 0.251721 21.9159Z" fill="#FF0000"/>
<path d="M1.76528 20.4507C1.86299 20.3786 1.97401 20.3265 2.09195 20.2975C2.20988 20.2685 2.33239 20.2632 2.45241 20.2818C2.57242 20.3004 2.68756 20.3426 2.79119 20.4059C2.89481 20.4692 2.98487 20.5525 3.05616 20.6508C3.12668 20.7472 3.1774 20.8566 3.20536 20.9728C3.23333 21.0889 3.238 21.2094 3.21909 21.3274C3.20018 21.4453 3.15808 21.5583 3.09521 21.6599C3.03235 21.7615 2.94997 21.8496 2.85284 21.9191C2.75513 21.9912 2.64411 22.0433 2.52617 22.0723C2.40824 22.1013 2.28573 22.1066 2.16571 22.088C2.0457 22.0694 1.93056 22.0272 1.82693 21.9639C1.72331 21.9006 1.63325 21.8173 1.56197 21.719C1.49186 21.6224 1.44149 21.513 1.41376 21.3969C1.38603 21.2809 1.38148 21.1605 1.40037 21.0427C1.41925 20.9248 1.46121 20.8119 1.52383 20.7103C1.58645 20.6087 1.6685 20.5205 1.76528 20.4507Z" fill="#FF0000"/>
<path d="M3.84036 18.5499C4.10637 18.3584 4.43712 18.2795 4.76091 18.3303C5.0847 18.381 5.37545 18.5573 5.57014 18.821C5.66576 18.9517 5.73454 19.1 5.77252 19.2574C5.8105 19.4149 5.81692 19.5783 5.79142 19.7382C5.76592 19.8981 5.70899 20.0514 5.62393 20.1892C5.53887 20.327 5.42735 20.4466 5.29583 20.5411C5.02971 20.733 4.69846 20.8119 4.37439 20.7605C4.05031 20.7091 3.75973 20.5316 3.56605 20.2668C3.47094 20.1362 3.40256 19.9881 3.36486 19.831C3.32716 19.6739 3.32088 19.5108 3.34637 19.3513C3.37186 19.1918 3.42862 19.0388 3.5134 18.9013C3.59817 18.7638 3.70929 18.6443 3.84036 18.5499Z" fill="#FF0000"/>
<path d="M6.21881 17.4591C6.37617 17.3458 6.57193 17.2991 6.76351 17.3294C6.95509 17.3596 7.12699 17.4642 7.24183 17.6205C7.29811 17.6975 7.3386 17.7849 7.36096 17.8776C7.38333 17.9703 7.38712 18.0666 7.37212 18.1608C7.35712 18.255 7.32363 18.3453 7.27357 18.4265C7.22351 18.5076 7.15789 18.5781 7.08047 18.6338C6.9231 18.7472 6.72734 18.7938 6.53576 18.7636C6.34418 18.7334 6.17228 18.6288 6.05745 18.4725C5.94461 18.3167 5.89823 18.1224 5.92848 17.9324C5.95874 17.7424 6.06315 17.5722 6.21881 17.4591Z" fill="#FF0000"/>
<path d="M23.3326 6.75452C23.2014 6.8487 23.0383 6.8873 22.8788 6.86192C22.7192 6.83654 22.5762 6.74924 22.4806 6.61898C22.4338 6.55466 22.4001 6.4817 22.3815 6.4043C22.3629 6.3269 22.3599 6.2466 22.3725 6.16801C22.3851 6.08942 22.4131 6.0141 22.4549 5.94638C22.4967 5.87867 22.5515 5.8199 22.6162 5.77345C22.681 5.7264 22.7545 5.69258 22.8324 5.67393C22.9103 5.65528 22.9911 5.65215 23.0702 5.66474C23.1494 5.67733 23.2252 5.70538 23.2935 5.74729C23.3618 5.7892 23.4211 5.84414 23.4682 5.90899C23.515 5.97332 23.5487 6.04628 23.5673 6.12367C23.5859 6.20107 23.5889 6.28137 23.5763 6.35996C23.5637 6.43855 23.5357 6.51387 23.4939 6.58159C23.4521 6.6493 23.3973 6.70807 23.3326 6.75452Z" fill="#FF0000"/>
<path d="M21.8191 8.21966C21.7214 8.29179 21.6103 8.34385 21.4924 8.37285C21.3745 8.40184 21.252 8.40719 21.1319 8.38859C21.0119 8.36999 20.8968 8.3278 20.7932 8.26446C20.6895 8.20113 20.5995 8.1179 20.5282 8.01957C20.4577 7.92317 20.4069 7.81374 20.379 7.69761C20.351 7.58148 20.3464 7.46096 20.3653 7.34301C20.3842 7.22507 20.4263 7.11205 20.4891 7.01048C20.552 6.90891 20.6344 6.82081 20.7315 6.75128C20.8291 6.67874 20.9401 6.62632 21.0581 6.59708C21.1761 6.56785 21.2987 6.56238 21.4188 6.58101C21.539 6.59963 21.6542 6.64196 21.7578 6.70555C21.8614 6.76913 21.9514 6.85269 22.0224 6.95137C22.0929 7.04778 22.1436 7.15721 22.1716 7.27334C22.1996 7.38947 22.2042 7.50999 22.1853 7.62793C22.1664 7.74587 22.1243 7.8589 22.0614 7.96047C21.9986 8.06203 21.9162 8.15013 21.8191 8.21966Z" fill="#FF0000"/>
<path d="M19.7408 10.1173C19.475 10.3095 19.144 10.389 18.82 10.3382C18.496 10.2874 18.2051 10.1105 18.011 9.84617C17.9154 9.71547 17.8466 9.56713 17.8086 9.4097C17.7706 9.25228 17.7642 9.08889 17.7897 8.92897C17.8152 8.76904 17.8721 8.61576 17.9572 8.47795C18.0422 8.34015 18.1538 8.22056 18.2853 8.12608C18.55 7.93595 18.8788 7.85718 19.201 7.90665C19.5231 7.95612 19.8131 8.1299 20.0086 8.39071C20.1056 8.52122 20.1756 8.66971 20.2147 8.82754C20.2537 8.98536 20.261 9.14938 20.236 9.31005C20.2111 9.47071 20.1545 9.62481 20.0695 9.76339C19.9844 9.90197 19.8727 10.0223 19.7408 10.1173Z" fill="#FF0000"/>
<path d="M17.3655 11.2113C17.2082 11.3247 17.0124 11.3713 16.8208 11.3411C16.6293 11.3109 16.4574 11.2062 16.3425 11.0499C16.2862 10.9729 16.2457 10.8856 16.2234 10.7928C16.201 10.7001 16.1972 10.6039 16.2122 10.5097C16.2272 10.4155 16.2607 10.3252 16.3108 10.244C16.3608 10.1628 16.4265 10.0923 16.5039 10.0366C16.6612 9.92324 16.857 9.8766 17.0486 9.90682C17.2402 9.93703 17.4121 10.0417 17.5269 10.198C17.5832 10.275 17.6237 10.3623 17.646 10.4551C17.6684 10.5478 17.6722 10.644 17.6572 10.7382C17.6422 10.8324 17.6087 10.9227 17.5586 11.0039C17.5086 11.0851 17.443 11.1556 17.3655 11.2113Z" fill="#FF0000"/>
<path d="M3.17556 25.0882C3.27108 24.9579 3.41415 24.8706 3.57368 24.8453C3.73321 24.8199 3.8963 24.8585 4.02754 24.9527C4.09217 24.9991 4.14698 25.0579 4.18881 25.1256C4.23064 25.1933 4.25866 25.2686 4.27126 25.3472C4.28385 25.4258 4.28078 25.5061 4.26222 25.5835C4.24365 25.6609 4.20996 25.7339 4.16308 25.7982C4.06707 25.9279 3.92377 26.0146 3.76427 26.0394C3.60477 26.0642 3.44194 26.025 3.3111 25.9305C3.18148 25.8367 3.09439 25.6954 3.06898 25.5374C3.04356 25.3795 3.0819 25.2179 3.17556 25.0882Z" fill="#FF0000"/>
<path d="M4.15663 23.2358C4.22764 23.1371 4.31757 23.0536 4.42118 22.99C4.5248 22.9264 4.64003 22.8841 4.76017 22.8654C4.8803 22.8468 5.00294 22.8523 5.12095 22.8815C5.23895 22.9107 5.34996 22.9632 5.44751 23.0357C5.54463 23.1052 5.62701 23.1933 5.68988 23.2949C5.75274 23.3965 5.79485 23.5095 5.81375 23.6274C5.83266 23.7454 5.82799 23.8659 5.80003 23.982C5.77206 24.0982 5.72135 24.2076 5.65082 24.304C5.57981 24.4027 5.48988 24.4862 5.38626 24.5498C5.28265 24.6134 5.16742 24.6557 5.04728 24.6744C4.92714 24.693 4.8045 24.6875 4.6865 24.6583C4.5685 24.629 4.45749 24.5766 4.35994 24.5041C4.26281 24.4346 4.18044 24.3465 4.11757 24.2449C4.05471 24.1433 4.0126 24.0303 3.99369 23.9124C3.97479 23.7944 3.97945 23.6739 4.00742 23.5578C4.03539 23.4416 4.0861 23.3322 4.15663 23.2358Z" fill="#FF0000"/>
<path d="M5.54109 20.7864C5.73477 20.5215 6.02536 20.344 6.34943 20.2926C6.6735 20.2412 7.00475 20.3201 7.27087 20.5121C7.4024 20.6065 7.51391 20.7261 7.59897 20.8639C7.68404 21.0017 7.74096 21.155 7.76646 21.315C7.79197 21.4749 7.78554 21.6383 7.74756 21.7957C7.70958 21.9531 7.6408 22.1015 7.54518 22.2322C7.35102 22.4965 7.0602 22.6734 6.73616 22.7242C6.41211 22.7749 6.08113 22.6955 5.81541 22.5032C5.68433 22.4088 5.57322 22.2894 5.48844 22.1518C5.40367 22.0143 5.3469 21.8614 5.32141 21.7018C5.29592 21.5423 5.30221 21.3793 5.33991 21.2222C5.37761 21.0651 5.44598 20.917 5.54109 20.7864Z" fill="#FF0000"/>
<path d="M7.4645 19.0178C7.57934 18.8616 7.75124 18.7569 7.94282 18.7267C8.13439 18.6965 8.33016 18.7431 8.48752 18.8565C8.56494 18.9122 8.63057 18.9827 8.68063 19.0639C8.73068 19.1451 8.76418 19.2354 8.77917 19.3296C8.79417 19.4238 8.79038 19.52 8.76802 19.6127C8.74566 19.7054 8.70517 19.7928 8.64888 19.8698C8.53405 20.0261 8.36215 20.1308 8.17057 20.161C7.97899 20.1912 7.78323 20.1445 7.62586 20.0312C7.54844 19.9755 7.48281 19.905 7.43276 19.8238C7.3827 19.7426 7.34921 19.6523 7.33421 19.5581C7.31921 19.4639 7.323 19.3677 7.34536 19.275C7.36773 19.1822 7.40822 19.0949 7.4645 19.0178Z" fill="#FF0000"/>
<path d="M20.4088 3.5822C20.3128 3.71195 20.1695 3.79861 20.01 3.82338C19.8505 3.84815 19.6876 3.80903 19.5568 3.71451C19.4922 3.66806 19.4374 3.60929 19.3955 3.54158C19.3537 3.47386 19.3257 3.39854 19.3131 3.31995C19.3005 3.24136 19.3036 3.16106 19.3221 3.08366C19.3407 3.00627 19.3744 2.93331 19.4213 2.86899C19.5167 2.73852 19.6601 2.6513 19.8199 2.62649C19.9796 2.60168 20.1427 2.64131 20.2732 2.73667C20.3379 2.78312 20.3927 2.84189 20.4345 2.9096C20.4763 2.97732 20.5044 3.05264 20.517 3.13123C20.5296 3.20982 20.5265 3.29012 20.5079 3.36752C20.4893 3.44491 20.4557 3.51787 20.4088 3.5822Z" fill="#FF0000"/>
<path d="M19.4245 5.44105C19.3532 5.53938 19.2631 5.62261 19.1595 5.68594C19.0559 5.74928 18.9408 5.79147 18.8207 5.81007C18.7007 5.82867 18.5782 5.82332 18.4603 5.79433C18.3423 5.76533 18.2313 5.71327 18.1336 5.64114C18.0365 5.57161 17.9541 5.48351 17.8912 5.38195C17.8284 5.28038 17.7863 5.16735 17.7674 5.04941C17.7485 4.93147 17.7531 4.81094 17.7811 4.69482C17.8091 4.57869 17.8598 4.46926 17.9303 4.37285C18.0016 4.27453 18.0916 4.1913 18.1953 4.12796C18.2989 4.06462 18.414 4.02244 18.534 4.00383C18.6541 3.98523 18.7766 3.99058 18.8945 4.01958C19.0124 4.04857 19.1235 4.10064 19.2212 4.17276C19.3183 4.24229 19.4007 4.33039 19.4635 4.43196C19.5264 4.53353 19.5685 4.64655 19.5874 4.76449C19.6063 4.88244 19.6017 5.00296 19.5737 5.11909C19.5457 5.23522 19.495 5.34465 19.4245 5.44105Z" fill="#FF0000"/>
<path d="M18.04 7.88404C17.8459 8.14839 17.555 8.32525 17.231 8.37604C16.907 8.42682 16.576 8.34741 16.3102 8.15512C16.1787 8.06064 16.0672 7.94105 15.9821 7.80325C15.8971 7.66544 15.8402 7.51216 15.8146 7.35224C15.7891 7.19231 15.7956 7.02892 15.8336 6.8715C15.8715 6.71407 15.9403 6.56573 16.0359 6.43503C16.2301 6.17067 16.5209 5.99381 16.845 5.94303C17.169 5.89224 17.5 5.97166 17.7657 6.16394C17.8972 6.25842 18.0087 6.37801 18.0938 6.51581C18.1789 6.65362 18.2358 6.80691 18.2613 6.96683C18.2868 7.12675 18.2804 7.29014 18.2424 7.44756C18.2044 7.60499 18.1356 7.75334 18.04 7.88404Z" fill="#FF0000"/>
<path d="M16.136 9.65254C16.0211 9.80883 15.8492 9.91347 15.6577 9.94369C15.4661 9.9739 15.2703 9.92726 15.113 9.8139C15.0355 9.75819 14.9699 9.6877 14.9198 9.60651C14.8698 9.52532 14.8363 9.43502 14.8213 9.34082C14.8063 9.24663 14.8101 9.1504 14.8325 9.05767C14.8548 8.96495 14.8953 8.87757 14.9516 8.80056C15.0664 8.64427 15.2383 8.53963 15.4299 8.50942C15.6215 8.4792 15.8172 8.52584 15.9746 8.6392C16.052 8.69492 16.1177 8.7654 16.1677 8.84659C16.2178 8.92779 16.2513 9.01808 16.2663 9.11228C16.2813 9.20647 16.2775 9.3027 16.2551 9.39543C16.2328 9.48815 16.1923 9.57554 16.136 9.65254Z" fill="#FF0000"/>
<path d="M6.9417 27.2053C6.97792 27.0898 7.04768 26.9877 7.1421 26.9119C7.23653 26.8362 7.35134 26.7903 7.47194 26.78C7.59254 26.7698 7.71347 26.7956 7.81934 26.8543C7.92521 26.9129 8.01122 27.0018 8.06645 27.1095C8.12167 27.2172 8.1436 27.3389 8.12944 27.4591C8.11529 27.5793 8.06569 27.6926 7.98696 27.7845C7.90823 27.8764 7.80392 27.9429 7.68733 27.9754C7.57073 28.0078 7.4471 28.0049 7.33219 27.9669C7.25641 27.9427 7.18615 27.9038 7.12547 27.8524C7.06478 27.8009 7.01486 27.738 6.97857 27.6673C6.94228 27.5965 6.92034 27.5192 6.91401 27.4399C6.90768 27.3606 6.91709 27.2809 6.9417 27.2053Z" fill="#FF0000"/>
<path d="M7.29669 25.1366C7.37271 24.9069 7.53651 24.7165 7.75235 24.6071C7.96819 24.4977 8.21854 24.4781 8.4488 24.5525C8.56285 24.5888 8.66861 24.6472 8.75996 24.7246C8.85131 24.8019 8.92645 24.8965 8.98105 25.003C9.03565 25.1095 9.06863 25.2258 9.07808 25.3451C9.08754 25.4644 9.07329 25.5844 9.03615 25.6982C8.96168 25.9288 8.79864 26.1205 8.58288 26.2309C8.36712 26.3414 8.11632 26.3616 7.88565 26.2871C7.65498 26.2127 7.46335 26.0496 7.35289 25.8339C7.24244 25.6181 7.22222 25.3673 7.29669 25.1366Z" fill="#FF0000"/>
<path d="M7.85499 22.387C7.92934 22.1529 8.07159 21.9462 8.26368 21.7931C8.45577 21.64 8.68903 21.5474 8.93383 21.5271C9.17863 21.5068 9.42394 21.5598 9.6386 21.6792C9.85325 21.7986 10.0276 21.9792 10.1394 22.1979C10.2513 22.4166 10.2956 22.6636 10.2668 22.9075C10.238 23.1515 10.1373 23.3813 9.97758 23.568C9.81785 23.7546 9.60627 23.8895 9.36969 23.9556C9.13312 24.0218 8.88223 24.0161 8.64888 23.9393C8.33877 23.8373 8.08144 23.6171 7.93279 23.3264C7.78414 23.0358 7.75618 22.6982 7.85499 22.387Z" fill="#FF0000"/>
<path d="M9.13296 20.1151C9.17715 19.9776 9.26115 19.8564 9.37432 19.7667C9.48749 19.677 9.62473 19.6229 9.76865 19.6113C9.91258 19.5997 10.0567 19.6311 10.1828 19.7014C10.3089 19.7718 10.4112 19.878 10.4769 20.0066C10.5426 20.1352 10.5686 20.2804 10.5516 20.4238C10.5347 20.5672 10.4756 20.7024 10.3818 20.8121C10.2879 20.9219 10.1637 21.0014 10.0247 21.0404C9.88564 21.0795 9.73817 21.0764 9.60091 21.0316C9.41809 20.971 9.26648 20.8409 9.17891 20.6693C9.09133 20.4978 9.07482 20.2987 9.13296 20.1151Z" fill="#FF0000"/>
<path d="M16.6426 1.46513C16.6064 1.58062 16.5367 1.68272 16.4422 1.75844C16.3478 1.83417 16.233 1.88008 16.1124 1.89035C15.9918 1.90062 15.8709 1.87477 15.765 1.8161C15.6591 1.75743 15.5731 1.66859 15.5179 1.56089C15.4627 1.45318 15.4407 1.33148 15.4549 1.21128C15.4691 1.09107 15.5187 0.977794 15.5974 0.885863C15.6761 0.793931 15.7804 0.727502 15.897 0.69503C16.0136 0.662557 16.1372 0.665509 16.2522 0.70351C16.3279 0.727683 16.3982 0.766596 16.4589 0.818014C16.5196 0.869432 16.5695 0.93234 16.6058 1.00312C16.6421 1.0739 16.664 1.15115 16.6703 1.23044C16.6767 1.30973 16.6672 1.38949 16.6426 1.46513Z" fill="#FF0000"/>
<path d="M16.2844 3.54992C16.2084 3.77966 16.0446 3.97 15.8288 4.07943C15.6129 4.18886 15.3626 4.20849 15.1323 4.13404C14.9617 4.07754 14.8117 3.97179 14.7011 3.83014C14.5905 3.68848 14.5243 3.51725 14.5109 3.33804C14.4975 3.15883 14.5374 2.97966 14.6257 2.82312C14.714 2.66658 14.8466 2.53968 15.0069 2.45841C15.1672 2.37715 15.3479 2.34515 15.5264 2.36647C15.7048 2.38779 15.873 2.46146 16.0096 2.5782C16.1462 2.69494 16.2452 2.84951 16.2942 3.02244C16.3431 3.19537 16.3397 3.37891 16.2844 3.54992Z" fill="#FF0000"/>
<path d="M15.7293 6.28334C15.655 6.51746 15.5127 6.7242 15.3207 6.87731C15.1286 7.03042 14.8953 7.12299 14.6505 7.14326C14.4057 7.16354 14.1604 7.1106 13.9457 6.99118C13.7311 6.87175 13.5568 6.69122 13.4449 6.47252C13.3331 6.25383 13.2887 6.00682 13.3175 5.76287C13.3464 5.51893 13.447 5.28905 13.6068 5.10243C13.7665 4.91581 13.9781 4.78087 14.2147 4.71475C14.4512 4.64863 14.7021 4.6543 14.9355 4.73106C15.2456 4.83307 15.5029 5.05332 15.6516 5.34397C15.8002 5.63463 15.8282 5.97219 15.7293 6.28334Z" fill="#FF0000"/>
<path d="M14.4514 8.55529C14.4077 8.6938 14.3239 8.8162 14.2105 8.90697C14.0972 8.99773 13.9594 9.05276 13.8147 9.06505C13.67 9.07735 13.5249 9.04637 13.3979 8.97604C13.2708 8.90571 13.1675 8.7992 13.1012 8.67005C13.0348 8.5409 13.0082 8.39493 13.025 8.25068C13.0417 8.10643 13.101 7.97041 13.1952 7.85989C13.2894 7.74937 13.4143 7.66935 13.5541 7.62998C13.6938 7.59061 13.8422 7.59367 13.9802 7.63877C14.0715 7.66772 14.1562 7.71444 14.2294 7.77626C14.3026 7.83808 14.3628 7.91376 14.4066 7.99896C14.4504 8.08415 14.4769 8.17717 14.4846 8.27265C14.4923 8.36813 14.481 8.46419 14.4514 8.55529Z" fill="#FF0000"/>
</svg>
